<mxfile host="app.diagrams.net" modified="2024-05-03T18:18:25.231Z" agent="Mozilla/5.0 (Macintosh; Intel Mac OS X 10_15_7) AppleWebKit/605.1.15 (KHTML, like Gecko) Version/17.4.1 Safari/605.1.15" etag="YYMNGlyUTJo4LcyxI0gE" version="24.3.1" type="device">
  <diagram name="Page-1" id="lKGwGlYzSdALPIneMPeE">
    <mxGraphModel dx="1244" dy="1695" grid="1" gridSize="10" guides="1" tooltips="1" connect="1" arrows="1" fold="1" page="1" pageScale="1" pageWidth="827" pageHeight="1169" math="0" shadow="0">
      <root>
        <mxCell id="0" />
        <mxCell id="1" parent="0" />
        <mxCell id="wGGE9G_nEYWlbJ2GfWHM-10" style="edgeStyle=orthogonalEdgeStyle;rounded=0;orthogonalLoop=1;jettySize=auto;html=1;exitX=0;exitY=0.5;exitDx=0;exitDy=0;endArrow=none;endFill=0;" edge="1" parent="1" source="wGGE9G_nEYWlbJ2GfWHM-1">
          <mxGeometry relative="1" as="geometry">
            <mxPoint x="190" y="640" as="targetPoint" />
          </mxGeometry>
        </mxCell>
        <mxCell id="wGGE9G_nEYWlbJ2GfWHM-12" style="edgeStyle=orthogonalEdgeStyle;rounded=0;orthogonalLoop=1;jettySize=auto;html=1;exitX=0.5;exitY=1;exitDx=0;exitDy=0;entryX=0.5;entryY=0;entryDx=0;entryDy=0;endArrow=none;endFill=0;" edge="1" parent="1" source="wGGE9G_nEYWlbJ2GfWHM-1" target="wGGE9G_nEYWlbJ2GfWHM-2">
          <mxGeometry relative="1" as="geometry" />
        </mxCell>
        <mxCell id="wGGE9G_nEYWlbJ2GfWHM-14" style="edgeStyle=orthogonalEdgeStyle;rounded=0;orthogonalLoop=1;jettySize=auto;html=1;exitX=0.75;exitY=0;exitDx=0;exitDy=0;endArrow=circlePlus;endFill=0;" edge="1" parent="1" source="wGGE9G_nEYWlbJ2GfWHM-1">
          <mxGeometry relative="1" as="geometry">
            <mxPoint x="130" y="430" as="targetPoint" />
          </mxGeometry>
        </mxCell>
        <mxCell id="wGGE9G_nEYWlbJ2GfWHM-17" style="edgeStyle=orthogonalEdgeStyle;rounded=0;orthogonalLoop=1;jettySize=auto;html=1;exitX=0.25;exitY=0;exitDx=0;exitDy=0;endArrow=none;endFill=0;" edge="1" parent="1" source="wGGE9G_nEYWlbJ2GfWHM-1">
          <mxGeometry relative="1" as="geometry">
            <mxPoint x="70" y="505" as="targetPoint" />
          </mxGeometry>
        </mxCell>
        <mxCell id="wGGE9G_nEYWlbJ2GfWHM-1" value="" style="verticalLabelPosition=middle;verticalAlign=middle;html=1;shape=trapezoid;perimeter=trapezoidPerimeter;whiteSpace=wrap;size=0.23;arcSize=10;flipV=1;labelPosition=center;align=center;rotation=-90;" vertex="1" parent="1">
          <mxGeometry x="140" y="450" width="100" height="60" as="geometry" />
        </mxCell>
        <mxCell id="wGGE9G_nEYWlbJ2GfWHM-11" style="edgeStyle=orthogonalEdgeStyle;rounded=0;orthogonalLoop=1;jettySize=auto;html=1;exitX=0;exitY=0.5;exitDx=0;exitDy=0;endArrow=none;endFill=0;" edge="1" parent="1" source="wGGE9G_nEYWlbJ2GfWHM-2">
          <mxGeometry relative="1" as="geometry">
            <mxPoint x="414" y="640" as="targetPoint" />
          </mxGeometry>
        </mxCell>
        <mxCell id="wGGE9G_nEYWlbJ2GfWHM-13" style="edgeStyle=orthogonalEdgeStyle;rounded=0;orthogonalLoop=1;jettySize=auto;html=1;exitX=0.75;exitY=0;exitDx=0;exitDy=0;endArrow=circlePlus;endFill=0;" edge="1" parent="1" source="wGGE9G_nEYWlbJ2GfWHM-2">
          <mxGeometry relative="1" as="geometry">
            <mxPoint x="350" y="420" as="targetPoint" />
          </mxGeometry>
        </mxCell>
        <mxCell id="wGGE9G_nEYWlbJ2GfWHM-2" value="" style="verticalLabelPosition=middle;verticalAlign=middle;html=1;shape=trapezoid;perimeter=trapezoidPerimeter;whiteSpace=wrap;size=0.23;arcSize=10;flipV=1;labelPosition=center;align=center;rotation=-90;" vertex="1" parent="1">
          <mxGeometry x="364" y="450" width="100" height="60" as="geometry" />
        </mxCell>
        <mxCell id="wGGE9G_nEYWlbJ2GfWHM-23" style="edgeStyle=orthogonalEdgeStyle;rounded=0;orthogonalLoop=1;jettySize=auto;html=1;entryX=0;entryY=0.5;entryDx=0;entryDy=0;endArrow=none;endFill=0;exitX=0.5;exitY=1;exitDx=0;exitDy=0;" edge="1" parent="1" source="wGGE9G_nEYWlbJ2GfWHM-3" target="wGGE9G_nEYWlbJ2GfWHM-4">
          <mxGeometry relative="1" as="geometry">
            <Array as="points">
              <mxPoint x="710" y="158" />
              <mxPoint x="710" y="248" />
              <mxPoint x="590" y="248" />
              <mxPoint x="590" y="365" />
            </Array>
          </mxGeometry>
        </mxCell>
        <mxCell id="wGGE9G_nEYWlbJ2GfWHM-28" style="edgeStyle=orthogonalEdgeStyle;rounded=0;orthogonalLoop=1;jettySize=auto;html=1;exitX=0.5;exitY=0;exitDx=0;exitDy=0;endArrow=none;endFill=0;" edge="1" parent="1" source="wGGE9G_nEYWlbJ2GfWHM-3">
          <mxGeometry relative="1" as="geometry">
            <mxPoint x="460" y="320" as="targetPoint" />
            <Array as="points">
              <mxPoint x="461" y="158" />
            </Array>
          </mxGeometry>
        </mxCell>
        <mxCell id="wGGE9G_nEYWlbJ2GfWHM-31" style="edgeStyle=orthogonalEdgeStyle;rounded=0;orthogonalLoop=1;jettySize=auto;html=1;exitX=0.75;exitY=0;exitDx=0;exitDy=0;endArrow=none;endFill=0;" edge="1" parent="1" source="wGGE9G_nEYWlbJ2GfWHM-3">
          <mxGeometry relative="1" as="geometry">
            <mxPoint x="610" y="129" as="targetPoint" />
          </mxGeometry>
        </mxCell>
        <mxCell id="wGGE9G_nEYWlbJ2GfWHM-3" value="" style="verticalLabelPosition=middle;verticalAlign=middle;html=1;shape=trapezoid;perimeter=trapezoidPerimeter;whiteSpace=wrap;size=0.23;arcSize=10;flipV=1;labelPosition=center;align=center;rotation=-90;" vertex="1" parent="1">
          <mxGeometry x="617.5" y="142.5" width="115" height="30" as="geometry" />
        </mxCell>
        <mxCell id="wGGE9G_nEYWlbJ2GfWHM-21" style="edgeStyle=orthogonalEdgeStyle;rounded=0;orthogonalLoop=1;jettySize=auto;html=1;exitX=0;exitY=0.25;exitDx=0;exitDy=0;endArrow=none;endFill=0;" edge="1" parent="1" source="wGGE9G_nEYWlbJ2GfWHM-4">
          <mxGeometry relative="1" as="geometry">
            <mxPoint x="630" y="323" as="targetPoint" />
          </mxGeometry>
        </mxCell>
        <mxCell id="wGGE9G_nEYWlbJ2GfWHM-33" style="edgeStyle=orthogonalEdgeStyle;rounded=0;orthogonalLoop=1;jettySize=auto;html=1;exitX=1;exitY=0.5;exitDx=0;exitDy=0;endArrow=none;endFill=0;" edge="1" parent="1" source="wGGE9G_nEYWlbJ2GfWHM-4">
          <mxGeometry relative="1" as="geometry">
            <mxPoint x="920" y="230" as="targetPoint" />
          </mxGeometry>
        </mxCell>
        <mxCell id="wGGE9G_nEYWlbJ2GfWHM-4" value="LFSR&lt;div&gt;REG&lt;/div&gt;" style="whiteSpace=wrap;html=1;aspect=fixed;" vertex="1" parent="1">
          <mxGeometry x="690" y="280" width="170" height="170" as="geometry" />
        </mxCell>
        <mxCell id="wGGE9G_nEYWlbJ2GfWHM-27" style="edgeStyle=orthogonalEdgeStyle;rounded=0;orthogonalLoop=1;jettySize=auto;html=1;exitX=1;exitY=0.5;exitDx=0;exitDy=0;exitPerimeter=0;endArrow=none;endFill=0;" edge="1" parent="1" source="wGGE9G_nEYWlbJ2GfWHM-5">
          <mxGeometry relative="1" as="geometry">
            <mxPoint x="450" y="105" as="targetPoint" />
          </mxGeometry>
        </mxCell>
        <mxCell id="wGGE9G_nEYWlbJ2GfWHM-45" style="edgeStyle=orthogonalEdgeStyle;rounded=0;orthogonalLoop=1;jettySize=auto;html=1;exitX=0;exitY=0.25;exitDx=0;exitDy=0;exitPerimeter=0;endArrow=none;endFill=0;" edge="1" parent="1" source="wGGE9G_nEYWlbJ2GfWHM-5">
          <mxGeometry relative="1" as="geometry">
            <mxPoint x="240" y="90" as="targetPoint" />
          </mxGeometry>
        </mxCell>
        <mxCell id="wGGE9G_nEYWlbJ2GfWHM-46" style="edgeStyle=orthogonalEdgeStyle;rounded=0;orthogonalLoop=1;jettySize=auto;html=1;exitX=0;exitY=0.75;exitDx=0;exitDy=0;exitPerimeter=0;endArrow=none;endFill=0;" edge="1" parent="1" source="wGGE9G_nEYWlbJ2GfWHM-5">
          <mxGeometry relative="1" as="geometry">
            <mxPoint x="240" y="120" as="targetPoint" />
          </mxGeometry>
        </mxCell>
        <mxCell id="wGGE9G_nEYWlbJ2GfWHM-5" value="" style="verticalLabelPosition=bottom;shadow=0;dashed=0;align=center;html=1;verticalAlign=top;shape=mxgraph.electrical.logic_gates.logic_gate;operation=xor;" vertex="1" parent="1">
          <mxGeometry x="324" y="75" width="100" height="60" as="geometry" />
        </mxCell>
        <mxCell id="wGGE9G_nEYWlbJ2GfWHM-24" style="edgeStyle=orthogonalEdgeStyle;rounded=0;orthogonalLoop=1;jettySize=auto;html=1;exitX=1;exitY=0.5;exitDx=0;exitDy=0;exitPerimeter=0;endArrow=none;endFill=0;" edge="1" parent="1" source="wGGE9G_nEYWlbJ2GfWHM-6">
          <mxGeometry relative="1" as="geometry">
            <mxPoint x="450" y="320" as="targetPoint" />
          </mxGeometry>
        </mxCell>
        <mxCell id="wGGE9G_nEYWlbJ2GfWHM-43" style="edgeStyle=orthogonalEdgeStyle;rounded=0;orthogonalLoop=1;jettySize=auto;html=1;exitX=0;exitY=0.25;exitDx=0;exitDy=0;exitPerimeter=0;endArrow=none;endFill=0;" edge="1" parent="1" source="wGGE9G_nEYWlbJ2GfWHM-6">
          <mxGeometry relative="1" as="geometry">
            <mxPoint x="240" y="5" as="targetPoint" />
          </mxGeometry>
        </mxCell>
        <mxCell id="wGGE9G_nEYWlbJ2GfWHM-44" style="edgeStyle=orthogonalEdgeStyle;rounded=0;orthogonalLoop=1;jettySize=auto;html=1;exitX=0;exitY=0.75;exitDx=0;exitDy=0;exitPerimeter=0;endArrow=none;endFill=0;" edge="1" parent="1" source="wGGE9G_nEYWlbJ2GfWHM-6">
          <mxGeometry relative="1" as="geometry">
            <mxPoint x="240" y="35" as="targetPoint" />
          </mxGeometry>
        </mxCell>
        <mxCell id="wGGE9G_nEYWlbJ2GfWHM-6" value="" style="verticalLabelPosition=bottom;shadow=0;dashed=0;align=center;html=1;verticalAlign=top;shape=mxgraph.electrical.logic_gates.logic_gate;operation=xor;" vertex="1" parent="1">
          <mxGeometry x="324" y="-10" width="100" height="60" as="geometry" />
        </mxCell>
        <mxCell id="wGGE9G_nEYWlbJ2GfWHM-26" style="edgeStyle=orthogonalEdgeStyle;rounded=0;orthogonalLoop=1;jettySize=auto;html=1;exitX=1;exitY=0.5;exitDx=0;exitDy=0;exitPerimeter=0;endArrow=none;endFill=0;" edge="1" parent="1" source="wGGE9G_nEYWlbJ2GfWHM-7">
          <mxGeometry relative="1" as="geometry">
            <mxPoint x="450" y="195" as="targetPoint" />
          </mxGeometry>
        </mxCell>
        <mxCell id="wGGE9G_nEYWlbJ2GfWHM-47" style="edgeStyle=orthogonalEdgeStyle;rounded=0;orthogonalLoop=1;jettySize=auto;html=1;exitX=0;exitY=0.25;exitDx=0;exitDy=0;exitPerimeter=0;endArrow=none;endFill=0;" edge="1" parent="1" source="wGGE9G_nEYWlbJ2GfWHM-7">
          <mxGeometry relative="1" as="geometry">
            <mxPoint x="240" y="180" as="targetPoint" />
          </mxGeometry>
        </mxCell>
        <mxCell id="wGGE9G_nEYWlbJ2GfWHM-48" style="edgeStyle=orthogonalEdgeStyle;rounded=0;orthogonalLoop=1;jettySize=auto;html=1;exitX=0;exitY=0.75;exitDx=0;exitDy=0;exitPerimeter=0;endArrow=none;endFill=0;" edge="1" parent="1" source="wGGE9G_nEYWlbJ2GfWHM-7">
          <mxGeometry relative="1" as="geometry">
            <mxPoint x="240" y="210" as="targetPoint" />
          </mxGeometry>
        </mxCell>
        <mxCell id="wGGE9G_nEYWlbJ2GfWHM-7" value="" style="verticalLabelPosition=bottom;shadow=0;dashed=0;align=center;html=1;verticalAlign=top;shape=mxgraph.electrical.logic_gates.logic_gate;operation=xor;" vertex="1" parent="1">
          <mxGeometry x="324" y="165" width="100" height="60" as="geometry" />
        </mxCell>
        <mxCell id="wGGE9G_nEYWlbJ2GfWHM-25" style="edgeStyle=orthogonalEdgeStyle;rounded=0;orthogonalLoop=1;jettySize=auto;html=1;exitX=1;exitY=0.5;exitDx=0;exitDy=0;exitPerimeter=0;endArrow=none;endFill=0;" edge="1" parent="1" source="wGGE9G_nEYWlbJ2GfWHM-8">
          <mxGeometry relative="1" as="geometry">
            <mxPoint x="450" y="290" as="targetPoint" />
          </mxGeometry>
        </mxCell>
        <mxCell id="wGGE9G_nEYWlbJ2GfWHM-49" style="edgeStyle=orthogonalEdgeStyle;rounded=0;orthogonalLoop=1;jettySize=auto;html=1;exitX=0;exitY=0.25;exitDx=0;exitDy=0;exitPerimeter=0;endArrow=none;endFill=0;" edge="1" parent="1" source="wGGE9G_nEYWlbJ2GfWHM-8">
          <mxGeometry relative="1" as="geometry">
            <mxPoint x="240" y="275" as="targetPoint" />
          </mxGeometry>
        </mxCell>
        <mxCell id="wGGE9G_nEYWlbJ2GfWHM-50" style="edgeStyle=orthogonalEdgeStyle;rounded=0;orthogonalLoop=1;jettySize=auto;html=1;exitX=0;exitY=0.75;exitDx=0;exitDy=0;exitPerimeter=0;endArrow=none;endFill=0;" edge="1" parent="1" source="wGGE9G_nEYWlbJ2GfWHM-8">
          <mxGeometry relative="1" as="geometry">
            <mxPoint x="240" y="305" as="targetPoint" />
          </mxGeometry>
        </mxCell>
        <mxCell id="wGGE9G_nEYWlbJ2GfWHM-8" value="" style="verticalLabelPosition=bottom;shadow=0;dashed=0;align=center;html=1;verticalAlign=top;shape=mxgraph.electrical.logic_gates.logic_gate;operation=xor;" vertex="1" parent="1">
          <mxGeometry x="324" y="260" width="100" height="60" as="geometry" />
        </mxCell>
        <mxCell id="wGGE9G_nEYWlbJ2GfWHM-9" value="" style="endArrow=none;html=1;rounded=0;entryX=0.13;entryY=1;entryDx=0;entryDy=0;entryPerimeter=0;" edge="1" parent="1" target="wGGE9G_nEYWlbJ2GfWHM-3">
          <mxGeometry width="50" height="50" relative="1" as="geometry">
            <mxPoint x="60" y="640" as="sourcePoint" />
            <mxPoint x="650" y="200" as="targetPoint" />
            <Array as="points">
              <mxPoint x="520" y="640" />
              <mxPoint x="520" y="200" />
            </Array>
          </mxGeometry>
        </mxCell>
        <mxCell id="wGGE9G_nEYWlbJ2GfWHM-15" value="s =1" style="text;html=1;align=center;verticalAlign=middle;resizable=0;points=[];autosize=1;strokeColor=none;fillColor=none;" vertex="1" parent="1">
          <mxGeometry x="340" y="428" width="50" height="30" as="geometry" />
        </mxCell>
        <mxCell id="wGGE9G_nEYWlbJ2GfWHM-16" value="s =1" style="text;html=1;align=center;verticalAlign=middle;resizable=0;points=[];autosize=1;strokeColor=none;fillColor=none;" vertex="1" parent="1">
          <mxGeometry x="120" y="410" width="50" height="30" as="geometry" />
        </mxCell>
        <mxCell id="wGGE9G_nEYWlbJ2GfWHM-18" value="start_i" style="text;html=1;align=center;verticalAlign=middle;resizable=0;points=[];autosize=1;strokeColor=none;fillColor=none;" vertex="1" parent="1">
          <mxGeometry x="80" y="478" width="60" height="30" as="geometry" />
        </mxCell>
        <mxCell id="wGGE9G_nEYWlbJ2GfWHM-19" value="rst_i" style="text;html=1;align=center;verticalAlign=middle;resizable=0;points=[];autosize=1;strokeColor=none;fillColor=none;" vertex="1" parent="1">
          <mxGeometry x="35" y="598" width="50" height="30" as="geometry" />
        </mxCell>
        <mxCell id="wGGE9G_nEYWlbJ2GfWHM-20" style="edgeStyle=orthogonalEdgeStyle;rounded=0;orthogonalLoop=1;jettySize=auto;html=1;exitX=0.5;exitY=1;exitDx=0;exitDy=0;entryX=-0.012;entryY=0.618;entryDx=0;entryDy=0;entryPerimeter=0;endArrow=none;endFill=0;" edge="1" parent="1" source="wGGE9G_nEYWlbJ2GfWHM-2" target="wGGE9G_nEYWlbJ2GfWHM-4">
          <mxGeometry relative="1" as="geometry" />
        </mxCell>
        <mxCell id="wGGE9G_nEYWlbJ2GfWHM-22" value="clk" style="text;html=1;align=center;verticalAlign=middle;resizable=0;points=[];autosize=1;strokeColor=none;fillColor=none;" vertex="1" parent="1">
          <mxGeometry x="630" y="288" width="40" height="30" as="geometry" />
        </mxCell>
        <mxCell id="wGGE9G_nEYWlbJ2GfWHM-29" value="" style="endArrow=none;html=1;rounded=0;" edge="1" parent="1">
          <mxGeometry width="50" height="50" relative="1" as="geometry">
            <mxPoint x="450" y="320" as="sourcePoint" />
            <mxPoint x="460" y="320" as="targetPoint" />
          </mxGeometry>
        </mxCell>
        <mxCell id="wGGE9G_nEYWlbJ2GfWHM-32" value="init_val" style="text;html=1;align=center;verticalAlign=middle;resizable=0;points=[];autosize=1;strokeColor=none;fillColor=none;" vertex="1" parent="1">
          <mxGeometry x="590" y="108" width="60" height="30" as="geometry" />
        </mxCell>
        <mxCell id="wGGE9G_nEYWlbJ2GfWHM-34" value="" style="endArrow=none;html=1;rounded=0;" edge="1" parent="1">
          <mxGeometry width="50" height="50" relative="1" as="geometry">
            <mxPoint x="240" y="360" as="sourcePoint" />
            <mxPoint x="240" as="targetPoint" />
          </mxGeometry>
        </mxCell>
        <mxCell id="wGGE9G_nEYWlbJ2GfWHM-35" value="" style="endArrow=none;html=1;rounded=0;" edge="1" parent="1">
          <mxGeometry width="50" height="50" relative="1" as="geometry">
            <mxPoint x="240" y="360" as="sourcePoint" />
            <mxPoint x="560" y="360" as="targetPoint" />
          </mxGeometry>
        </mxCell>
        <mxCell id="wGGE9G_nEYWlbJ2GfWHM-36" value="" style="endArrow=none;html=1;rounded=0;" edge="1" parent="1">
          <mxGeometry width="50" height="50" relative="1" as="geometry">
            <mxPoint x="560" y="230" as="sourcePoint" />
            <mxPoint x="560" y="360" as="targetPoint" />
          </mxGeometry>
        </mxCell>
        <mxCell id="wGGE9G_nEYWlbJ2GfWHM-37" value="" style="endArrow=none;html=1;rounded=0;" edge="1" parent="1">
          <mxGeometry width="50" height="50" relative="1" as="geometry">
            <mxPoint x="940" y="230" as="sourcePoint" />
            <mxPoint x="560" y="230" as="targetPoint" />
          </mxGeometry>
        </mxCell>
        <mxCell id="wGGE9G_nEYWlbJ2GfWHM-38" value="result [7:0]" style="text;html=1;align=center;verticalAlign=middle;resizable=0;points=[];autosize=1;strokeColor=none;fillColor=none;" vertex="1" parent="1">
          <mxGeometry x="900" y="198" width="80" height="30" as="geometry" />
        </mxCell>
        <mxCell id="wGGE9G_nEYWlbJ2GfWHM-39" value="[0]" style="text;html=1;align=center;verticalAlign=middle;resizable=0;points=[];autosize=1;strokeColor=none;fillColor=none;" vertex="1" parent="1">
          <mxGeometry x="410" y="-12" width="40" height="30" as="geometry" />
        </mxCell>
        <mxCell id="wGGE9G_nEYWlbJ2GfWHM-40" value="[2]" style="text;html=1;align=center;verticalAlign=middle;resizable=0;points=[];autosize=1;strokeColor=none;fillColor=none;" vertex="1" parent="1">
          <mxGeometry x="410" y="78" width="40" height="30" as="geometry" />
        </mxCell>
        <mxCell id="wGGE9G_nEYWlbJ2GfWHM-41" value="[6]" style="text;html=1;align=center;verticalAlign=middle;resizable=0;points=[];autosize=1;strokeColor=none;fillColor=none;" vertex="1" parent="1">
          <mxGeometry x="420" y="168" width="40" height="30" as="geometry" />
        </mxCell>
        <mxCell id="wGGE9G_nEYWlbJ2GfWHM-42" value="[7]" style="text;html=1;align=center;verticalAlign=middle;resizable=0;points=[];autosize=1;strokeColor=none;fillColor=none;" vertex="1" parent="1">
          <mxGeometry x="410" y="258" width="40" height="30" as="geometry" />
        </mxCell>
        <mxCell id="wGGE9G_nEYWlbJ2GfWHM-51" value="result [0]" style="text;html=1;align=center;verticalAlign=middle;resizable=0;points=[];autosize=1;strokeColor=none;fillColor=none;" vertex="1" parent="1">
          <mxGeometry x="235" y="-22" width="70" height="30" as="geometry" />
        </mxCell>
        <mxCell id="wGGE9G_nEYWlbJ2GfWHM-52" value="result [7]" style="text;html=1;align=center;verticalAlign=middle;resizable=0;points=[];autosize=1;strokeColor=none;fillColor=none;" vertex="1" parent="1">
          <mxGeometry x="235" y="8" width="70" height="30" as="geometry" />
        </mxCell>
        <mxCell id="wGGE9G_nEYWlbJ2GfWHM-53" value="result [1]" style="text;html=1;align=center;verticalAlign=middle;resizable=0;points=[];autosize=1;strokeColor=none;fillColor=none;" vertex="1" parent="1">
          <mxGeometry x="235" y="60" width="70" height="30" as="geometry" />
        </mxCell>
        <mxCell id="wGGE9G_nEYWlbJ2GfWHM-54" value="result [7]" style="text;html=1;align=center;verticalAlign=middle;resizable=0;points=[];autosize=1;strokeColor=none;fillColor=none;" vertex="1" parent="1">
          <mxGeometry x="240" y="90" width="70" height="30" as="geometry" />
        </mxCell>
        <mxCell id="wGGE9G_nEYWlbJ2GfWHM-55" value="result [5]" style="text;html=1;align=center;verticalAlign=middle;resizable=0;points=[];autosize=1;strokeColor=none;fillColor=none;" vertex="1" parent="1">
          <mxGeometry x="235" y="150" width="70" height="30" as="geometry" />
        </mxCell>
        <mxCell id="wGGE9G_nEYWlbJ2GfWHM-56" value="result [7]" style="text;html=1;align=center;verticalAlign=middle;resizable=0;points=[];autosize=1;strokeColor=none;fillColor=none;" vertex="1" parent="1">
          <mxGeometry x="235" y="180" width="70" height="30" as="geometry" />
        </mxCell>
        <mxCell id="wGGE9G_nEYWlbJ2GfWHM-57" value="result [6]" style="text;html=1;align=center;verticalAlign=middle;resizable=0;points=[];autosize=1;strokeColor=none;fillColor=none;" vertex="1" parent="1">
          <mxGeometry x="240" y="250" width="70" height="30" as="geometry" />
        </mxCell>
        <mxCell id="wGGE9G_nEYWlbJ2GfWHM-58" value="result [7]" style="text;html=1;align=center;verticalAlign=middle;resizable=0;points=[];autosize=1;strokeColor=none;fillColor=none;" vertex="1" parent="1">
          <mxGeometry x="240" y="280" width="70" height="30" as="geometry" />
        </mxCell>
      </root>
    </mxGraphModel>
  </diagram>
</mxfile>
